<svg xmlns="http://www.w3.org/2000/svg"><defs>
<symbol id="clear_all" width="24" height="24" viewBox="0 -960 960 960"><path d="M120-280v-80h560v80H120Zm80-160v-80h560v80H200Zm80-160v-80h560v80H280Z"/></symbol>
<symbol id="settings" width="24" height="24" viewBox="0 -960 960 960"><path d="m370-80-16-128q-13-5-24.5-12T307-235l-119 50L78-375l103-78q-1-7-1-13.5v-27q0-6.5 1-13.5L78-585l110-190 119 50q11-8 23-15t24-12l16-128h220l16 128q13 5 24.5 12t22.5 15l119-50 110 190-103 78q1 7 1 13.5v27q0 6.5-2 13.5l103 78-110 190-118-50q-11 8-23 15t-24 12L590-80H370Zm70-80h79l14-106q31-8 57.5-23.5T639-327l99 41 39-68-86-65q5-14 7-29.5t2-31.5q0-16-2-31.5t-7-29.5l86-65-39-68-99 42q-22-23-48.5-38.5T533-694l-13-106h-79l-14 106q-31 8-57.5 23.5T321-633l-99-41-39 68 86 64q-5 15-7 30t-2 32q0 16 2 31t7 30l-86 65 39 68 99-42q22 23 48.5 38.5T427-266l13 106Zm42-180q58 0 99-41t41-99q0-58-41-99t-99-41q-59 0-99.5 41T342-480q0 58 40.5 99t99.5 41Zm-2-140Z"/></symbol>
<symbol id="playing_cards" width="24" height="24" viewBox="0 -960 960 960"><path d="m608-368 46-166-142-98-46 166 142 98ZM160-207l-33-16q-31-13-42-44.5t3-62.5l72-156v279Zm160 87q-33 0-56.5-24T240-201v-239l107 294q3 7 5 13.5t7 12.5h-39Zm206-5q-31 11-62-3t-42-45L245-662q-11-31 3-61.5t45-41.5l301-110q31-11 61.5 3t41.5 45l178 489q11 31-3 61.5T827-235L526-125Zm-28-75 302-110-179-490-301 110 178 490Zm62-300Z"/></symbol>
<symbol id="close" width="24" height="24" viewBox="0 -960 960 960"><path xmlns="http://www.w3.org/2000/svg" d="m256-200-56-56 224-224-224-224 56-56 224 224 224-224 56 56-224 224 224 224-56 56-224-224-224 224Z"/></symbol>
</defs></svg>